# xmcd
#
# Track frame offsets:
#	180
#	21928
#	36050
#	50062
#	64523
#	77919
#	92669
#	105610
#	119394
#	131290
#	145925
#	157151
#	170547
#	184694
#	197821
#	211975
#
# Disc length: 3023 seconds
#
# Revision: 1
# Processed by: cddbd v1.5.2PL0 Copyright (c) Steve Scherf et al.
# Submitted via: audiograbber 1.83.01
#
DISCID=e00bcd10
DTITLE=Red Johnson - My Collection
DYEAR=1999
DGENRE=Country
TTITLE0=You Made Me Overnight
TTITLE1=Let It Be You
TTITLE2=Reynosa-old Mexico
TTITLE3=Thanks Darling
TTITLE4=Manhandled
TTITLE5=Blue Rose
TTITLE6=Trains Of Memory
TTITLE7=How Can I Sing For Jesus
TTITLE8=Big Sky Country
TTITLE9=There Will Always Be Cowboys
TTITLE10=Cry My Sale Gently
TTITLE11=What You Threw Away
TTITLE12=This Marriage
TTITLE13=Cajun Accordian
TTITLE14=What Is To Be Will Be
TTITLE15=When You Say Texas
EXTD=
EXTT0=
EXTT1=
EXTT2=
EXTT3=
EXTT4=
EXTT5=
EXTT6=
EXTT7=
EXTT8=
EXTT9=
EXTT10=
EXTT11=
EXTT12=
EXTT13=
EXTT14=
EXTT15=
PLAYORDER=
